# xmcd
#
# Track frame offsets: 
#        150
#        13997
#        27973
#        43273
#        54257
#        66695
#        80974
#        93675
#        107419
#        121616
#        135691
#        149640
#        162744
#        176242
#        189640
#        204703
#        216932
#        231575
#        244502
#        257609
#        269991
#        282614
#        296787
#        311820
#        325865
#
# Disc length: 4496 seconds
#
# Revision: 1
# Processed by: cddbd v1.5.2PL0 Copyright (c) Steve Scherf et al.
# Submitted via: ExactAudioCopyFreeDBPlugin 1.0
#
DISCID=a7118e19
DTITLE=Various Artist - Ramblers, Gamblers, Vagabonds And Revelers
DYEAR=2012
DGENRE=Blues
TTITLE0=Robert and Charlie Hicks - Darktown Gamblin'
TTITLE1=Charlie Poole and The North Carlonia Ramblers - Ramblin' Blues
TTITLE2=Memphis Jug Band - Snitchin' Gambler Blues
TTITLE3=Robert Johnson - From Four 'Til Late
TTITLE4=Eddie Shuler's All Star Reveliers - Jambalaya Boogie
TTITLE5=Buddy Moss - Prowlin' Gambler Blues
TTITLE6=Blind Lemon Jefferson - Rambler Blues
TTITLE7=Doug Bine and His Dixie Ramblers - Rambler's Stomp
TTITLE8=Peg Leg Howell - Skin Game Blues
TTITLE9=California Vagabonds - Slue Foot
TTITLE10=Lonnie Johnson - Roaming Rambler Blues
TTITLE11=Curley Weaver - Birmingham Gambler
TTITLE12=Charlie Poole and The North Carlonia Ramblers - He Rambled
TTITLE13=Ezra Buzzington's Rustic Revelers - Brown Jug Blues
TTITLE14=Prairie Ramblers - Deep Elem Blues (1935)
TTITLE15=Jimmie Rodgers - Blue Yodel No.9 (Standing On The Corner)
TTITLE16=Leake County Revelers - The Old Hat
TTITLE17=Blind Lemon Jefferson - Bad Luck Blues
TTITLE18=Cliff Carlisle - Gamblin' Dan
TTITLE19=Memphis Slim and The Vagabonds - Mother Earth
TTITLE20=Stanley Brothers - The Rambler's Blues
TTITLE21=Robert Lee McCoy - Good Gamblin'
TTITLE22=Muddy Waters - Ramblin' Kid Blues
TTITLE23=Elvira Johnson - Numbers On The Brain
TTITLE24=Scrapper Blackwell - Rambling Blues
EXTD=
EXTT0=
EXTT1=
EXTT2=
EXTT3=
EXTT4=
EXTT5=
EXTT6=
EXTT7=
EXTT8=
EXTT9=
EXTT10=
EXTT11=
EXTT12=
EXTT13=
EXTT14=
EXTT15=
EXTT16=
EXTT17=
EXTT18=
EXTT19=
EXTT20=
EXTT21=
EXTT22=
EXTT23=
EXTT24=
PLAYORDER=
